<?xml version="1.0" encoding="utf-8"?>
<!DOCTYPE svg PUBLIC "-//W3C//DTD SVG 1.1//EN" "http://www.w3.org/Graphics/SVG/1.1/DTD/svg11.dtd">
<svg version="1.1"
	xmlns="http://www.w3.org/2000/svg"
	viewBox="0 0 1000 187"
	preserveAspectRatio="xMidYMid meet">
<g>
<path fill="#08648e" d="M137.936.127c32.223 0 58.586 16.244 58.586 53.258 0 15.444-5.859 30.625-18.642 37.015 13.316 10.383 18.642 25.563 18.642 41.011 0 37.543-27.162 55.117-60.448 55.117H38.346c-27.161 0-38.345-11.184-38.345-38.341V38.471C.001 11.311 11.186.127 38.346.127h99.59zm-2.928 76.157c15.446 0 28.227-5.324 28.227-22.899 0-17.576-12.781-22.901-28.227-22.901H46.07c-9.053 0-12.782 3.729-12.782 12.781v20.504c0 9.055 3.729 12.783 12.782 12.783l88.938-.268zm-1.863 79.887c16.246 0 30.09-6.121 30.09-24.761 0-18.643-13.845-24.769-30.09-24.769l-87.075.268c-9.053 0-12.782 3.728-12.782 12.781v23.702c0 9.05 3.729 12.778 12.782 12.778h87.075zm130.956 12.657c0 8.96-4.864 17.662-16.126 17.662-11.006 0-15.869-8.702-15.869-17.662V17.807c0-8.959 4.863-17.661 15.869-17.661 11.263 0 16.126 8.702 16.126 17.661v151.021zM448.653 84.36c-4.607 7.166-4.607 10.749 0 17.404l41.978 60.407c2.303 3.329 3.327 6.402 3.327 9.47 0 9.212-8.958 14.849-15.87 14.849-7.934 0-12.031-5.637-19.454-16.126L422.8 118.657c-8.192-11.774-12.799-12.284-21.503-12.284h-52.216c-8.703 0-12.287 3.582-12.287 12.284v50.171c0 8.96-4.863 17.662-16.125 17.662-11.008 0-15.871-8.702-15.871-17.662V17.807c0-8.959 4.863-17.661 15.871-17.661 11.262 0 16.125 8.702 16.125 17.661v47.099c0 8.703 3.584 12.285 12.287 12.285h52.984c8.703 0 13.311-.51 21.501-12.285l32.251-48.634C462.985 5.523 467.338.146 475.271.146c6.912 0 15.869 5.632 15.869 14.847 0 3.07-1.023 6.143-3.326 9.471L448.653 84.36zm214.758 35.58c-8.445 11.773-16.896 17.911-24.575 17.911-8.445 0-16.127-6.138-24.572-17.911l-55.799-76.792c-1.025-1.279-2.049-2.047-3.071-2.047-1.537 0-2.815 1.535-2.815 4.607v123.119c0 8.96-4.862 17.662-16.126 17.662-11.008 0-15.872-8.702-15.872-17.662V31.118c0-15.614 7.936-30.973 26.877-30.973 13.568 0 24.32 7.169 34.556 21.246l52.73 72.437c1.278 1.791 2.303 3.072 4.093 3.072 1.538 0 2.816-1.281 4.098-3.072l52.729-72.437C705.901 7.314 716.652.146 730.22.146c18.939 0 26.879 15.358 26.879 30.973v137.71c0 8.96-4.866 17.662-15.873 17.662-11.262 0-16.129-8.702-16.129-17.662V45.709c0-3.072-1.28-4.607-2.813-4.607-1.023 0-2.047.768-3.071 2.047l-55.802 76.791zm206.358 66.537c-56.475 0-79.652-23.177-79.652-79.651V79.652C790.116 23.176 813.294 0 869.769 0h50.614c56.478 0 79.651 23.176 79.651 79.652v27.173c0 56.475-23.174 79.651-79.651 79.651h-50.614zm51.68-30.373c31.969 0 45.291-13.315 45.291-44.753V75.124c0-31.436-13.322-44.756-45.291-44.756H868.7c-31.965 0-45.285 13.32-45.285 44.756v36.228c0 31.438 13.32 44.753 45.285 44.753h52.749z" />
</g>
</svg>