<?xml version="1.0" encoding="utf-8"?>
<!DOCTYPE svg PUBLIC "-//W3C//DTD SVG 1.1//EN" "http://www.w3.org/Graphics/SVG/1.1/DTD/svg11.dtd">
<svg version="1.1"
	xmlns="http://www.w3.org/2000/svg"
	xmlns:xlink="http://www.w3.org/1999/xlink"
	viewBox="-0.567 -0.084 92 45"
	preserveAspectRatio="xMidYMid meet">
<path fill="#EE2D24" d="M45.111,18.668c0.542-5.348,3.452-8.518,3.452-11.6c0-2.244-0.834-4.171-3.452-7.068c-2.618,2.897-3.453,4.824-3.453,7.068C41.658,10.15,44.568,13.32,45.111,18.668"/>
<path fill="#EE2D24" d="M39.473,17.989c-1.379,1.217-4.076,0.432-4.076-2.515c0-1.666,1.736-3.087,3.416-3.087c3.318,0,4.832,3.526,4.921,5.166c0.069,1.294-0.517,3.337-2.672,3.364c1.009-0.494,1.345-1.708,1.246-2.572c-0.115-1.024-0.771-2.364-2.208-2.364c-0.797,0-1.398,0.517-1.398,1.079C38.701,17.559,39,17.974,39.473,17.989"/>
<path fill="#EE2D24" d="M50.752,17.989c1.379,1.217,4.075,0.432,4.075-2.515c0-1.666-1.734-3.087-3.414-3.087c-3.319,0-4.833,3.526-4.922,5.166c-0.069,1.294,0.517,3.337,2.672,3.364c-1.011-0.494-1.346-1.708-1.247-2.572c0.115-1.024,0.771-2.364,2.209-2.364c0.797,0,1.396,0.517,1.396,1.079C51.521,17.559,51.225,17.974,50.752,17.989"/>
<rect x="19.12" y="26.55" fill="#231F20" width="2.464" height="17.323"/>
<polyline fill="#231F20" points="15.239,43.873 12.775,43.873 12.775,36.33 2.463,36.33 2.463,43.873 0,43.873 0,26.55 2.463,26.55 2.463,34.094 12.775,34.094 12.775,26.55 15.239,26.55 15.239,43.873 "/>
<polyline fill="#231F20" points="83.298,34.907 90.688,43.873 87.69,43.873 81.799,36.71 75.829,43.873 72.807,43.873 80.274,34.907 73.34,26.55 76.362,26.55 81.799,33.154 87.209,26.55 90.207,26.55 83.298,34.907 "/>
<path fill="#231F20" d="M64.317,26.322c5.716,0,9.322,4.063,9.322,8.889c0,4.674-3.505,8.891-9.373,8.891c-5.663,0-9.245-4.191-9.245-8.891C55.021,30.411,58.705,26.322,64.317,26.322 M64.317,41.816c3.887,0,6.757-2.82,6.757-6.605c0-3.809-2.87-6.604-6.757-6.604c-3.859,0-6.73,2.795-6.73,6.604C57.587,38.996,60.458,41.816,64.317,41.816z"/>
<polyline fill="none" points="0,0 0,44.113 90.688,44.113 90.688,0 "/>
<path fill="#231F20" d="M52.745,39.491c-1.215,1.442-3.071,2.325-5.245,2.325c-3.862,0-6.732-2.82-6.732-6.605c0-3.809,2.87-6.604,6.732-6.604c2.114,0,3.929,0.828,5.143,2.197l1.3-2.188c-1.594-1.42-3.792-2.294-6.442-2.294c-5.614,0-9.298,4.089-9.298,8.889c0,4.7,3.581,8.891,9.246,8.891c2.772,0,5.017-0.941,6.613-2.427L52.745,39.491"/>
<path fill="#231F20" d="M35.051,29.783c-1.386-1.182-3.075-1.426-4.244-1.426c-1.762,0-3.307,0.783-3.307,2.257c0,3.327,8.853,3.337,8.853,8.849c0,3.59-3.664,4.782-6.485,4.639c-1.919-0.097-3.354-0.471-4.875-1.476v-2.464c1.517,0.982,2.926,1.503,4.535,1.632c1.806,0.145,4.393-0.28,4.393-2.411c0-3.581-8.928-3.689-8.928-8.438c0-2.82,2.497-4.628,5.534-4.628c1.962,0,3.271,0.424,4.517,1.135L35.051,29.783"/>
</svg>
