<?xml version="1.0" encoding="utf-8"?>
<!DOCTYPE svg PUBLIC "-//W3C//DTD SVG 1.0//EN" "http://www.w3.org/TR/2001/REC-SVG-20010904/DTD/svg10.dtd">
<svg version="1.1"
	xmlns="http://www.w3.org/2000/svg"
	xmlns:xlink="http://www.w3.org/1999/xlink"
	viewBox="0 0 220 60"
	preserveAspectRatio="xMidYMid meet">
<g>
	<path fill="#474648" d="M48.2,0.5h29V8H56.6v7.8h18.2v7.5H56.6v8.1h20.9V39H48.2V0.5z M87.2,0.5h17.6c4.9,0,8.7,1.4,11.2,3.9c2.1,2.1,3.3,5.2,3.3,8.8v0.1c0,6.2-3.4,10.1-8.3,11.9l9.4,13.8h-9.9l-8.3-12.3h-6.7V39h-8.5V0.5z M104.3,19.2c4.1,0,6.5-2.2,6.5-5.4v-0.1c0-3.6-2.5-5.5-6.7-5.5h-8.4v11.1H104.3z M130.2,0.5h8.5v30.8h19.2V39h-27.7V0.5z M167.6,16.3v22.6h8.5V16.3l-4.2-2.9L167.6,16.3z M178.6,5.4l-5.1-0.1l-1.7-4.8l-1.6,4.8L165,5.4l4.1,3.1l-1.4,4.9l4.2-2.9l4.2,2.9l-1.5-4.9L178.6,5.4z M0,0.5l19.3,15.4L38.5,0.5V39h-8.4V17.7l-10.8,8.4l-11-8.2V39H0V0.5z M211.5,0.4h8.5V39l-25.9-20.2V39h-8.3V0.5l25.7,20.3V0.4z"/>
	<path fill="#30AC62" d="M0,52.9L0,52.9c0-3.7,2.7-6.7,6.5-6.7c2.3,0,3.7,0.8,5,2.1L10.8,49c-1.1-1.1-2.4-1.9-4.4-1.9c-3.1,0-5.4,2.5-5.4,5.8v0c0,3.3,2.4,5.8,5.5,5.8c1.9,0,3.1-0.7,4.4-2l0.6,0.6c-1.4,1.3-2.8,2.3-5.1,2.3C2.7,59.6,0,56.6,0,52.9z M36.2,54.2l-5.5-7.8h1.2l4.8,6.9l4.9-6.9h1.1l-5.5,7.8v5.1h-1V54.2z M61.7,52.9L61.7,52.9c0-3.7,2.7-6.7,6.5-6.7c2.3,0,3.7,0.8,5,2.1L72.5,49c-1.1-1.1-2.4-1.9-4.4-1.9c-3.1,0-5.4,2.5-5.4,5.8v0c0,3.3,2.4,5.8,5.5,5.8c1.9,0,3.1-0.7,4.4-2l0.6,0.6c-1.4,1.3-2.8,2.3-5.1,2.3C64.5,59.6,61.7,56.6,61.7,52.9z M92.4,46.4h1v12h7.6v0.9h-8.5V46.4z M120,46.4h9.2v0.9H121v5.1h7.4v0.9H121v5.2h8.3v0.9H120V46.4z M148.4,57.5l0.6-0.7c1.4,1.3,2.7,1.9,4.6,1.9c1.9,0,3.3-1.1,3.3-2.6v0c0-1.4-0.7-2.2-3.7-2.7c-3.1-0.6-4.4-1.7-4.4-3.6v0c0-1.9,1.8-3.4,4.2-3.4c1.9,0,3.1,0.5,4.4,1.6l-0.6,0.8c-1.2-1.1-2.4-1.5-3.9-1.5c-1.9,0-3.2,1.1-3.2,2.4v0c0,1.4,0.7,2.2,3.8,2.8c3,0.6,4.2,1.7,4.2,3.6v0c0,2.1-1.8,3.5-4.3,3.5C151.5,59.5,149.9,58.8,148.4,57.5z"/>
	<path fill="#30AC62" d="M220,59.6h-34.1V46.2H220V59.6z M193.8,56c1.1,0,1.8-0.4,2.4-1.1l-0.7-0.7c-0.5,0.5-1,0.8-1.7,0.8c-1.1,0-2-0.9-2-2.1v0c0-1.2,0.8-2.1,2-2.1c0.7,0,1.2,0.3,1.7,0.7l0.7-0.8c-0.6-0.5-1.2-0.9-2.3-0.9c-1.8,0-3.1,1.4-3.1,3.1v0C190.8,54.6,192.1,56,193.8,56z M202.8,56c1.8,0,3.1-1.4,3.1-3.1v0c0-1.7-1.3-3.1-3.1-3.1c-1.8,0-3.1,1.4-3.1,3.1v0C199.6,54.6,200.9,56,202.8,56z M202.8,55c-1.2,0-2-1-2-2.1v0c0-1.2,0.8-2.1,2-2.1c1.2,0,2,1,2,2.1v0C204.8,54.1,204,55,202.8,55zM209.3,55.9h1v-4.3l1.9,2.8h0l1.9-2.8v4.3h1.1v-6H214l-1.8,2.8l-1.8-2.8h-1.1V55.9z M171.7,51.7c-0.7,0-1.2,0.5-1.2,1.2c0,0.7,0.5,1.2,1.2,1.2c0.7,0,1.2-0.5,1.2-1.2C172.9,52.3,172.4,51.7,171.7,51.7z"/>
</g>
</svg>
